<svg width="67" height="59" viewBox="0 0 67 59" fill="none" xmlns="http://www.w3.org/2000/svg">
<path d="M51.2095 10.7388L47.5613 12.2528V40.8839C48.833 40.0723 50.0502 39.2454 51.2095 38.4207V10.7388Z" fill="#024A82"/>
<path d="M58.6529 6.10352e-05L51.2105 4.59192V33.5875L51.191 38.433C52.5274 37.4828 53.7896 36.536 54.9656 35.6203V35.6L51.7771 32.5564L54.9656 31.711V9.18379L58.6529 7.66264V6.10352e-05Z" fill="#15BAFE"/>
<path d="M66.0944 4.59125L58.6518 7.6619V30.7326L66.0942 28.7592L66.0944 4.59125Z" fill="#024A82"/>
<path d="M58.653 7.66205L54.9656 9.1832V31.7104L58.653 30.7326L58.653 7.66205ZM54.9656 35.5994V35.6197C54.9694 35.6167 54.9736 35.6137 54.9774 35.6107L54.9656 35.5994Z" fill="#0287BF"/>
<path d="M58.6519 0L58.6519 7.66259L66.0943 4.59189L58.6519 0Z" fill="#0287BF"/>
<path d="M30.0577 20.9518L27.4122 22.0497V49.2357C28.2913 49.0787 29.1992 48.8857 30.0577 48.6779V42.1557V20.9518Z" fill="#024A82"/>
<path d="M35.4545 13.165L30.0579 16.4947V37.5201V48.6779C30.9779 48.4543 31.8857 48.2033 32.7807 47.9276V19.8243L35.4545 18.7213V13.165Z" fill="#15BAFE"/>
<path d="M40.85 16.4944L35.4532 18.721V47.0199C37.3013 46.3348 39.0883 45.5545 40.807 44.7081L40.8498 37.5199L40.85 16.4944Z" fill="#024A82"/>
<path d="M35.4541 18.7203L32.7803 19.8233V47.9265C33.685 47.6478 34.5765 47.3445 35.4541 47.0192V18.7203Z" fill="#0287BF"/>
<path d="M35.4535 13.165L35.4535 18.7213L40.8502 16.4947L35.4535 13.165Z" fill="#0287BF"/>
<path d="M13.6261 29.2291L11.4277 30.1414V48.8177C12.1597 48.9932 12.8876 49.1446 13.6116 49.2744L13.6261 46.849V29.2291Z" fill="#024A82"/>
<path d="M18.1116 22.7593L13.6271 25.5262V42.9979V49.2779C14.3859 49.4136 15.1402 49.5251 15.8898 49.6131V28.2931L18.1116 27.3766V22.7593Z" fill="#15BAFE"/>
<path d="M22.5951 25.5262L18.1105 27.3765V49.8097C19.6135 49.8972 21.0952 49.8927 22.5543 49.8094L22.595 42.9979L22.5951 25.5262Z" fill="#024A82"/>
<path d="M18.1111 27.3762L15.8892 28.2928L15.8892 49.6128C16.6345 49.7003 17.3754 49.7665 18.1111 49.8094V27.3762Z" fill="#0287BF"/>
<path d="M18.1105 22.7593L18.1105 27.3765L22.595 25.5262L18.1105 22.7593Z" fill="#0287BF"/>
<path d="M1.58132 35.8699L2.05063e-06 36.5261C-2.56329e-06 35.9426 2.05063e-06 44.1894 2.05063e-06 44.1894C2.05063e-06 44.1894 1.05557 44.7817 1.58132 45.0594V35.8699Z" fill="#024A82"/>
<path d="M4.8066 31.2153L1.58081 33.2056V45.0594C2.12485 45.3468 2.6673 45.6186 3.20837 45.8776V35.1959L4.8066 34.5366V31.2153Z" fill="#15BAFE"/>
<path d="M8.03294 33.2051L4.80701 34.5361L4.80708 46.6054C5.88493 47.0697 6.95641 47.4802 8.0206 47.8384L8.03287 45.7729L8.03294 33.2051Z" fill="#024A82"/>
<path d="M4.80661 34.5367L3.20837 35.1961V45.8778C3.74258 46.1335 4.27547 46.3773 4.80661 46.6061V34.5367Z" fill="#0287BF"/>
<path d="M4.80701 31.2153L4.80701 34.5366L8.03282 33.2056L4.80701 31.2153Z" fill="#0287BF"/>
<path d="M66.9838 29.7572L53.7329 33.2707L56.1842 35.6107C46.8146 44.5175 20.1738 59.6828 0.111328 44.5139C10.1873 62.4877 38.3346 65.5397 60.7802 40.0307L62.5668 41.7031L66.9838 29.7572Z" fill="#024A82"/>
<path d="M66.9837 29.7572C67.8702 30.2004 32.7763 79.9879 0.111328 44.5139C10.1873 62.4877 38.3345 65.5397 60.7801 40.0307L62.5667 41.7031L66.9837 29.7572Z" fill="#0287BF"/>
</svg>
