<svg width="209" height="23" viewBox="0 0 209 23" fill="none" xmlns="http://www.w3.org/2000/svg">
<path d="M11.34 7.96V10.7H7.62V22H4.2V10.7H0.48V7.96H11.34ZM20.2164 22L17.2964 16.7H16.4764V22H13.0564V7.96H18.7964C19.9031 7.96 20.8431 8.15333 21.6164 8.54C22.4031 8.92667 22.9897 9.46 23.3764 10.14C23.7631 10.8067 23.9564 11.5533 23.9564 12.38C23.9564 13.3133 23.6897 14.1467 23.1564 14.88C22.6364 15.6133 21.8631 16.1333 20.8364 16.44L24.0764 22H20.2164ZM16.4764 14.28H18.5964C19.2231 14.28 19.6897 14.1267 19.9964 13.82C20.3164 13.5133 20.4764 13.08 20.4764 12.52C20.4764 11.9867 20.3164 11.5667 19.9964 11.26C19.6897 10.9533 19.2231 10.8 18.5964 10.8H16.4764V14.28ZM34.8433 19.52H29.6033L28.7633 22H25.1833L30.2633 7.96H34.2233L39.3033 22H35.6833L34.8433 19.52ZM33.9633 16.88L32.2233 11.74L30.5033 16.88H33.9633ZM49.9894 7.96V10.7H44.2694V13.66H48.5494V16.32H44.2694V22H40.8494V7.96H49.9894ZM55.2069 7.96V22H51.7869V7.96H55.2069ZM57.1053 14.96C57.1053 13.5733 57.4053 12.34 58.0053 11.26C58.6053 10.1667 59.4386 9.32 60.5053 8.72C61.5853 8.10667 62.8053 7.8 64.1653 7.8C65.832 7.8 67.2586 8.24 68.4453 9.12C69.632 10 70.4253 11.2 70.8253 12.72H67.0653C66.7853 12.1333 66.3853 11.6867 65.8653 11.38C65.3586 11.0733 64.7786 10.92 64.1253 10.92C63.072 10.92 62.2186 11.2867 61.5653 12.02C60.912 12.7533 60.5853 13.7333 60.5853 14.96C60.5853 16.1867 60.912 17.1667 61.5653 17.9C62.2186 18.6333 63.072 19 64.1253 19C64.7786 19 65.3586 18.8467 65.8653 18.54C66.3853 18.2333 66.7853 17.7867 67.0653 17.2H70.8253C70.4253 18.72 69.632 19.92 68.4453 20.8C67.2586 21.6667 65.832 22.1 64.1653 22.1C62.8053 22.1 61.5853 21.8 60.5053 21.2C59.4386 20.5867 58.6053 19.74 58.0053 18.66C57.4053 17.58 57.1053 16.3467 57.1053 14.96ZM82.238 22.14C81.2113 22.14 80.2913 21.9733 79.478 21.64C78.6646 21.3067 78.0113 20.8133 77.518 20.16C77.038 19.5067 76.7846 18.72 76.758 17.8H80.398C80.4513 18.32 80.6313 18.72 80.938 19C81.2446 19.2667 81.6446 19.4 82.138 19.4C82.6446 19.4 83.0446 19.2867 83.338 19.06C83.6313 18.82 83.778 18.4933 83.778 18.08C83.778 17.7333 83.658 17.4467 83.418 17.22C83.1913 16.9933 82.9046 16.8067 82.558 16.66C82.2246 16.5133 81.7446 16.3467 81.118 16.16C80.2113 15.88 79.4713 15.6 78.898 15.32C78.3246 15.04 77.8313 14.6267 77.418 14.08C77.0046 13.5333 76.798 12.82 76.798 11.94C76.798 10.6333 77.2713 9.61333 78.218 8.88C79.1646 8.13333 80.398 7.76 81.918 7.76C83.4646 7.76 84.7113 8.13333 85.658 8.88C86.6046 9.61333 87.1113 10.64 87.178 11.96H83.478C83.4513 11.5067 83.2846 11.1533 82.978 10.9C82.6713 10.6333 82.278 10.5 81.798 10.5C81.3846 10.5 81.0513 10.6133 80.798 10.84C80.5446 11.0533 80.418 11.3667 80.418 11.78C80.418 12.2333 80.6313 12.5867 81.058 12.84C81.4846 13.0933 82.1513 13.3667 83.058 13.66C83.9646 13.9667 84.698 14.26 85.258 14.54C85.8313 14.82 86.3246 15.2267 86.738 15.76C87.1513 16.2933 87.358 16.98 87.358 17.82C87.358 18.62 87.1513 19.3467 86.738 20C86.338 20.6533 85.7513 21.1733 84.978 21.56C84.2046 21.9467 83.2913 22.14 82.238 22.14ZM96.1027 22.14C94.7827 22.14 93.5693 21.8333 92.4627 21.22C91.3693 20.6067 90.496 19.7533 89.8427 18.66C89.2027 17.5533 88.8827 16.3133 88.8827 14.94C88.8827 13.5667 89.2027 12.3333 89.8427 11.24C90.496 10.1467 91.3693 9.29333 92.4627 8.68C93.5693 8.06667 94.7827 7.76 96.1027 7.76C97.4227 7.76 98.6293 8.06667 99.7227 8.68C100.829 9.29333 101.696 10.1467 102.323 11.24C102.963 12.3333 103.283 13.5667 103.283 14.94C103.283 16.3133 102.963 17.5533 102.323 18.66C101.683 19.7533 100.816 20.6067 99.7227 21.22C98.6293 21.8333 97.4227 22.14 96.1027 22.14ZM96.1027 19.02C97.2227 19.02 98.116 18.6467 98.7827 17.9C99.4627 17.1533 99.8027 16.1667 99.8027 14.94C99.8027 13.7 99.4627 12.7133 98.7827 11.98C98.116 11.2333 97.2227 10.86 96.1027 10.86C94.9693 10.86 94.0627 11.2267 93.3827 11.96C92.716 12.6933 92.3827 13.6867 92.3827 14.94C92.3827 16.18 92.716 17.1733 93.3827 17.92C94.0627 18.6533 94.9693 19.02 96.1027 19.02ZM108.605 19.36H113.085V22H105.185V7.96H108.605V19.36ZM118.077 7.96V16.36C118.077 17.2 118.283 17.8467 118.697 18.3C119.11 18.7533 119.717 18.98 120.517 18.98C121.317 18.98 121.93 18.7533 122.357 18.3C122.783 17.8467 122.997 17.2 122.997 16.36V7.96H126.417V16.34C126.417 17.5933 126.15 18.6533 125.617 19.52C125.083 20.3867 124.363 21.04 123.457 21.48C122.563 21.92 121.563 22.14 120.457 22.14C119.35 22.14 118.357 21.9267 117.477 21.5C116.61 21.06 115.923 20.4067 115.417 19.54C114.91 18.66 114.657 17.5933 114.657 16.34V7.96H118.077ZM138.918 7.96V10.7H135.198V22H131.778V10.7H128.058V7.96H138.918ZM144.055 7.96V22H140.635V7.96H144.055ZM153.173 22.14C151.853 22.14 150.64 21.8333 149.533 21.22C148.44 20.6067 147.566 19.7533 146.913 18.66C146.273 17.5533 145.953 16.3133 145.953 14.94C145.953 13.5667 146.273 12.3333 146.913 11.24C147.566 10.1467 148.44 9.29333 149.533 8.68C150.64 8.06667 151.853 7.76 153.173 7.76C154.493 7.76 155.7 8.06667 156.793 8.68C157.9 9.29333 158.766 10.1467 159.393 11.24C160.033 12.3333 160.353 13.5667 160.353 14.94C160.353 16.3133 160.033 17.5533 159.393 18.66C158.753 19.7533 157.886 20.6067 156.793 21.22C155.7 21.8333 154.493 22.14 153.173 22.14ZM153.173 19.02C154.293 19.02 155.186 18.6467 155.853 17.9C156.533 17.1533 156.873 16.1667 156.873 14.94C156.873 13.7 156.533 12.7133 155.853 11.98C155.186 11.2333 154.293 10.86 153.173 10.86C152.04 10.86 151.133 11.2267 150.453 11.96C149.786 12.6933 149.453 13.6867 149.453 14.94C149.453 16.18 149.786 17.1733 150.453 17.92C151.133 18.6533 152.04 19.02 153.173 19.02ZM174.816 22H171.396L165.676 13.34V22H162.256V7.96H165.676L171.396 16.66V7.96H174.816V22ZM182.375 22.14C181.348 22.14 180.428 21.9733 179.615 21.64C178.801 21.3067 178.148 20.8133 177.655 20.16C177.175 19.5067 176.921 18.72 176.895 17.8H180.535C180.588 18.32 180.768 18.72 181.075 19C181.381 19.2667 181.781 19.4 182.275 19.4C182.781 19.4 183.181 19.2867 183.475 19.06C183.768 18.82 183.915 18.4933 183.915 18.08C183.915 17.7333 183.795 17.4467 183.555 17.22C183.328 16.9933 183.041 16.8067 182.695 16.66C182.361 16.5133 181.881 16.3467 181.255 16.16C180.348 15.88 179.608 15.6 179.035 15.32C178.461 15.04 177.968 14.6267 177.555 14.08C177.141 13.5333 176.935 12.82 176.935 11.94C176.935 10.6333 177.408 9.61333 178.355 8.88C179.301 8.13333 180.535 7.76 182.055 7.76C183.601 7.76 184.848 8.13333 185.795 8.88C186.741 9.61333 187.248 10.64 187.315 11.96H183.615C183.588 11.5067 183.421 11.1533 183.115 10.9C182.808 10.6333 182.415 10.5 181.935 10.5C181.521 10.5 181.188 10.6133 180.935 10.84C180.681 11.0533 180.555 11.3667 180.555 11.78C180.555 12.2333 180.768 12.5867 181.195 12.84C181.621 13.0933 182.288 13.3667 183.195 13.66C184.101 13.9667 184.835 14.26 185.395 14.54C185.968 14.82 186.461 15.2267 186.875 15.76C187.288 16.2933 187.495 16.98 187.495 17.82C187.495 18.62 187.288 19.3467 186.875 20C186.475 20.6533 185.888 21.1733 185.115 21.56C184.341 21.9467 183.428 22.14 182.375 22.14Z" fill="#024A82"/>
</svg>
